<?xml version="1.0" encoding="iso-8859-1"?>
<!-- Generator: Adobe Illustrator 19.0.0, SVG Export Plug-In . SVG Version: 6.00 Build 0)  -->
<svg version="1.1" id="Layer_1" xmlns="http://www.w3.org/2000/svg" xmlns:xlink="http://www.w3.org/1999/xlink" x="0px" y="0px"
	 viewBox="0 0 512.001 512.001" style="enable-background:new 0 0 512.001 512.001;" xml:space="preserve">
<rect x="216.216" y="7.993" style="fill:#676C6E;" width="80.035" height="32.016"/>
<polygon style="fill:#ABAFB2;" points="328.269,88.032 296.253,88.032 216.214,88.032 184.198,88.032 184.198,40.009 
	216.214,40.009 296.253,40.009 328.269,40.009 "/>
<path style="fill:#F5FAFB;" d="M384.616,207.771c14.967,15.848,26.974,34.497,35.137,55.067l-3.441,1.281
	c-104.051,0-136.066-40.019-136.066-40.019H114.243c24.492-33.376,60.43-57.708,101.97-67.393V88.032h80.039v68.674
	C330.75,164.709,361.324,182.798,384.616,207.771z"/>
<path style="fill:#FFADA9;" d="M419.753,262.838c8.084,20.17,12.566,42.18,12.566,65.312c0,97.247-78.838,176.087-176.087,176.087
	c-97.247,0-176.087-78.838-176.087-176.087c0-38.979,12.726-74.917,34.097-104.051h166.001c0,0,32.016,40.019,136.066,40.019
	L419.753,262.838z"/>
<g>
	<path style="fill:#231F20;" d="M426.843,259.817c-7.574-19.081-18.241-36.555-31.719-52.029
		c34.402-37.569,38.58-74.779,35.766-99.867c-3.198-28.516-15.73-47.587-16.261-48.384l-2.339-3.509h-76.377V32.016h-32.015V0
		h-95.796v32.016h-32.015v63.781h32.015v54.653c-40.189,10.836-75.673,35.119-100.444,68.875
		c-23.304,31.771-35.622,69.363-35.622,108.711c0,101.439,82.526,183.965,183.965,183.965c101.438,0,183.964-82.526,183.964-183.965
		C439.964,304.493,435.546,281.533,426.843,259.817z M335.913,71.784h67.633c3.347,6.23,9.829,20.272,11.76,38.569
		c3.244,30.752-7.198,59.639-31.021,85.959c-22.454-21.986-49.987-37.721-80.388-45.872V95.796h32.016V71.784z M223.858,15.757
		h64.283v16.259h-64.282V15.757H223.858z M191.843,80.039V47.773h128.313V80.04H191.843V80.039z M217.77,164.265l6.09-1.42V95.796
		h64.282v67.055l6.098,1.415c32.477,7.535,61.656,24.397,84.416,48.799c12.091,12.802,21.933,27.217,29.367,42.969
		c-46.79-0.993-76.991-10.508-94.354-18.564c-19.689-9.136-27.467-18.366-27.504-18.408l-2.366-2.957H130.532
		C153.538,190.334,183.99,172.139,217.77,164.265z M256,496.243c-92.75,0-168.208-75.458-168.208-168.208
		c0-34.654,10.456-67.818,30.272-96.173h158.545c9.91,9.728,47.741,39.674,137.938,40.012c6.406,18.01,9.66,36.868,9.66,56.161
		C424.207,420.785,348.749,496.243,256,496.243z"/>
	<rect x="207.98" y="56.032" style="fill:#231F20;" width="96.044" height="15.757"/>
</g>
<path style="fill:#FFFFFF;" d="M264.004,448.22v15.757c74.958,0,135.941-60.983,135.941-135.941h-15.757
	C384.188,394.305,330.274,448.22,264.004,448.22z"/>
<rect x="231.983" y="448.221" style="fill:#231F20;" width="16.007" height="15.757"/>
<g>
	<rect x="151.949" y="312.155" style="fill:#FFFFFF;" width="16.007" height="15.757"/>
	<rect x="167.958" y="296.146" style="fill:#FFFFFF;" width="16.008" height="15.757"/>
	<rect x="264.001" y="368.176" style="fill:#FFFFFF;" width="16.008" height="15.757"/>
</g>
<g>
	<rect x="231.983" y="312.155" style="fill:#231F20;" width="16.007" height="15.757"/>
	<rect x="320.033" y="296.146" style="fill:#231F20;" width="16.008" height="15.757"/>
	<rect x="167.958" y="400.194" style="fill:#231F20;" width="16.008" height="15.757"/>
</g>
<g>
</g>
<g>
</g>
<g>
</g>
<g>
</g>
<g>
</g>
<g>
</g>
<g>
</g>
<g>
</g>
<g>
</g>
<g>
</g>
<g>
</g>
<g>
</g>
<g>
</g>
<g>
</g>
<g>
</g>
</svg>
