<?xml version="1.0" encoding="iso-8859-1"?>
<!-- Generator: Adobe Illustrator 19.0.0, SVG Export Plug-In . SVG Version: 6.00 Build 0)  -->
<svg version="1.1" id="Layer_1" xmlns="http://www.w3.org/2000/svg" xmlns:xlink="http://www.w3.org/1999/xlink" x="0px" y="0px"
	 viewBox="0 0 512 512" style="enable-background:new 0 0 512 512;" xml:space="preserve">
<path style="fill:#F29A36;" d="M512,256c0-20.035-15.026-37.287-38.289-45.301c-1.67-8.237-3.896-16.473-6.456-24.376
	c16.139-18.588,20.48-40.96,10.463-58.323s-31.499-24.821-55.763-20.035c-5.565-6.344-11.576-12.355-17.92-17.92
	c4.786-24.153-2.671-45.746-20.035-55.763c-17.363-10.017-39.736-5.677-58.323,10.463c-8.014-2.56-16.139-4.786-24.376-6.456
	C293.287,15.026,276.035,0,256,0s-37.287,15.026-45.301,38.289c-8.237,1.67-16.362,3.896-24.376,6.456
	c-18.588-16.139-40.96-20.48-58.323-10.463s-24.821,31.61-20.035,55.763c-6.344,5.565-12.355,11.576-17.92,17.92
	C65.892,103.29,44.299,110.637,34.282,128s-5.677,39.736,10.463,58.323c-2.56,7.903-4.786,16.139-6.456,24.376
	C15.026,218.713,0,235.965,0,256s15.026,37.287,38.289,45.301c1.67,8.237,3.896,16.473,6.456,24.376
	c-16.139,18.588-20.48,40.96-10.463,58.323s31.499,24.821,55.763,20.035c5.565,6.344,11.576,12.355,17.92,17.92
	c-4.786,24.153,2.671,45.746,20.035,55.763s39.736,5.677,58.323-10.463c8.014,2.56,16.139,4.786,24.376,6.456
	C218.713,496.974,235.965,512,256,512s37.287-15.026,45.301-38.289c8.237-1.67,16.362-3.896,24.376-6.456
	c18.588,16.139,40.96,20.48,58.323,10.463c12.911-7.457,20.369-21.37,21.259-37.955c0.223-2.115,0.223-4.341,0.111-6.678
	c-0.111-3.562-0.557-7.346-1.336-11.13c6.344-5.565,12.355-11.576,17.92-17.92c24.264,4.786,45.746-2.671,55.763-20.035
	c10.017-17.363,5.677-39.736-10.463-58.323c2.56-7.903,4.786-16.139,6.456-24.376C496.974,293.287,512,276.035,512,256z"/>
<path style="fill:#E7812E;" d="M473.711,301.301c-1.67,8.237-3.896,16.473-6.456,24.376c16.139,18.588,20.48,40.96,10.463,58.323
	s-31.499,24.821-55.763,20.035c-5.565,6.344-11.576,12.355-17.92,17.92c0.779,3.784,1.224,7.569,1.336,11.13
	c0.111,2.337,0.111,4.563-0.111,6.678c-0.89,16.584-8.348,30.497-21.259,37.955c-17.363,10.017-39.736,5.677-58.323-10.463
	c-8.014,2.56-16.139,4.786-24.376,6.456C293.287,496.974,276.035,512,256,512V0c20.035,0,37.287,15.026,45.301,38.289
	c8.237,1.67,16.362,3.896,24.376,6.456c18.588-16.139,40.96-20.48,58.323-10.463s24.821,31.61,20.035,55.763
	c6.344,5.565,12.355,11.576,17.92,17.92c24.264-4.786,45.746,2.671,55.763,20.035s5.677,39.736-10.463,58.323
	c2.56,7.903,4.786,16.139,6.456,24.376C496.974,218.713,512,235.965,512,256S496.974,293.287,473.711,301.301z"/>
<g>
	<path style="fill:#F9BC35;" d="M291.391,132.901c-6.565,6.567-17.028,6.567-23.595,0c-3.117-3.117-7.457-4.786-11.799-4.786
		s-8.682,1.67-11.799,4.786c-6.567,6.567-17.14,6.456-23.595,0c-6.568-6.567-6.568-17.141,0-23.597
		c9.46-9.461,22.038-14.692,35.394-14.692c13.355,0,25.935,5.231,35.394,14.692C297.96,115.76,297.96,126.334,291.391,132.901z"/>
	<path style="fill:#F9BC35;" d="M291.391,402.702c-9.46,9.461-22.038,14.692-35.394,14.692s-25.935-5.231-35.394-14.692
		c-6.568-6.456-6.568-17.03,0-23.597c6.456-6.456,17.028-6.567,23.595,0c3.117,3.117,7.457,4.786,11.799,4.786
		s8.682-1.67,11.799-4.786c6.567-6.567,17.14-6.456,23.595,0C297.96,385.673,297.96,396.247,291.391,402.702z"/>
	<path style="fill:#F9BC35;" d="M109.28,291.421c-9.468-9.462-14.674-22.038-14.674-35.418s5.207-25.956,14.674-35.418
		c6.521-6.511,17.087-6.516,23.609,0.006c6.521,6.521,6.521,17.092,0,23.614c-3.152,3.152-4.892,7.343-4.892,11.799
		c0,4.457,1.74,8.647,4.892,11.799c6.521,6.521,6.521,17.092,0,23.614C126.367,297.938,115.808,297.938,109.28,291.421z"/>
</g>
<path style="fill:#F39E31;" d="M379.106,291.416c-6.521-6.521-6.521-17.092,0-23.614c3.152-3.152,4.892-7.343,4.892-11.799
	c0-4.457-1.74-8.647-4.892-11.799c-6.521-6.521-6.521-17.092,0-23.614s17.087-6.516,23.609-0.006
	c9.468,9.462,14.674,22.038,14.674,35.418c0,13.38-5.207,25.956-14.674,35.418C396.188,297.938,385.628,297.938,379.106,291.416z"/>
<path style="fill:#F9BC35;" d="M177.291,384.797c-27.619,0-50.087-22.468-50.087-50.087c0-9.223,7.479-16.696,16.696-16.696
	s16.696,7.473,16.696,16.696c0,9.206,7.49,16.696,16.696,16.696c9.217,0,16.696,7.473,16.696,16.696
	C193.987,377.324,186.508,384.797,177.291,384.797z"/>
<g>
	<path style="fill:#F39E31;" d="M368.096,193.992c-9.217,0-16.696-7.473-16.696-16.696c0-9.206-7.49-16.696-16.696-16.696
		c-9.217,0-16.696-7.473-16.696-16.696s7.479-16.696,16.696-16.696c27.619,0,50.087,22.468,50.087,50.087
		C384.791,186.519,377.313,193.992,368.096,193.992z"/>
	<path style="fill:#F39E31;" d="M334.704,384.797c-9.217,0-16.696-7.473-16.696-16.696s7.479-16.696,16.696-16.696
		c9.206,0,16.696-7.49,16.696-16.696c0-9.223,7.479-16.696,16.696-16.696s16.696,7.473,16.696,16.696
		C384.791,362.329,362.323,384.797,334.704,384.797z"/>
</g>
<g>
	<path style="fill:#F9BC35;" d="M143.9,193.992c-9.217,0-16.696-7.473-16.696-16.696c0-27.619,22.468-50.087,50.087-50.087
		c9.217,0,16.696,7.473,16.696,16.696s-7.479,16.696-16.696,16.696c-9.206,0-16.696,7.49-16.696,16.696
		C160.595,186.519,153.117,193.992,143.9,193.992z"/>
	<path style="fill:#F9BC35;" d="M181.628,291.421c-9.468-9.462-14.674-22.038-14.674-35.418s5.207-25.956,14.674-35.418
		c6.521-6.511,17.087-6.516,23.609,0.006s6.521,17.092,0,23.614c-3.152,3.152-4.892,7.343-4.892,11.799
		c0,4.457,1.74,8.647,4.892,11.799c6.521,6.521,6.521,17.092,0,23.614C198.715,297.938,188.156,297.938,181.628,291.421z"/>
</g>
<path style="fill:#F39E31;" d="M306.758,291.416c-6.521-6.521-6.521-17.092,0-23.614c3.152-3.152,4.892-7.343,4.892-11.799
	c0-4.457-1.74-8.647-4.892-11.799c-6.521-6.521-6.521-17.092,0-23.614s17.087-6.516,23.609-0.006
	c9.468,9.462,14.674,22.038,14.674,35.418c0,13.38-5.207,25.956-14.674,35.418C323.84,297.938,313.281,297.938,306.758,291.416z"/>
<g>
	<path style="fill:#F9BC35;" d="M291.391,330.355c-9.46,9.461-22.038,14.692-35.394,14.692s-25.935-5.231-35.394-14.692
		c-6.568-6.456-6.568-17.03,0-23.597c6.456-6.456,17.028-6.567,23.595,0c3.117,3.116,7.457,4.786,11.799,4.786
		s8.682-1.67,11.799-4.786c6.567-6.567,17.14-6.456,23.595,0C297.96,313.325,297.96,323.899,291.391,330.355z"/>
	<path style="fill:#F9BC35;" d="M291.391,205.249c-6.565,6.567-17.028,6.567-23.595,0c-3.117-3.117-7.457-4.786-11.799-4.786
		s-8.682,1.67-11.799,4.786c-6.567,6.567-17.14,6.456-23.595,0c-6.568-6.567-6.568-17.141,0-23.597
		c9.46-9.461,22.038-14.692,35.394-14.692c13.355,0,25.935,5.231,35.394,14.692C297.96,188.108,297.96,198.682,291.391,205.249z"/>
	<path style="fill:#F9BC35;" d="M272.916,256.449c0,9.127-7.457,16.696-16.696,16.696c-0.111,0-0.111,0-0.223,0
		c-9.017-0.111-16.473-7.68-16.473-16.696c0-9.127,7.456-16.584,16.473-16.696c0.111,0,0.111,0,0.223,0
		C265.458,239.753,272.916,247.21,272.916,256.449z"/>
</g>
<g>
	<path style="fill:#F39E31;" d="M291.391,132.901c-6.565,6.567-17.028,6.567-23.595,0c-3.117-3.117-7.457-4.786-11.799-4.786V94.612
		c13.357,0,25.935,5.231,35.394,14.692C297.96,115.76,297.96,126.334,291.391,132.901z"/>
	<path style="fill:#F39E31;" d="M291.391,205.249c-6.565,6.567-17.028,6.567-23.595,0c-3.117-3.117-7.457-4.786-11.799-4.786V166.96
		c13.357,0,25.935,5.231,35.394,14.692C297.96,188.108,297.96,198.682,291.391,205.249z"/>
	<path style="fill:#F39E31;" d="M272.916,256.449c0,9.127-7.457,16.696-16.696,16.696c-0.111,0-0.111,0-0.223,0
		c0-0.111,0-0.111,0-0.111v-33.28c0.111,0,0.111,0,0.223,0C265.458,239.753,272.916,247.21,272.916,256.449z"/>
	<path style="fill:#F39E31;" d="M291.391,330.355c-9.46,9.461-22.038,14.692-35.394,14.692v-33.503c4.341,0,8.682-1.67,11.799-4.786
		c6.567-6.567,17.14-6.456,23.595,0C297.96,313.325,297.96,323.899,291.391,330.355z"/>
	<path style="fill:#F39E31;" d="M291.391,402.702c-9.46,9.461-22.038,14.692-35.394,14.692v-33.503c4.341,0,8.682-1.67,11.799-4.786
		c6.567-6.567,17.14-6.456,23.595,0C297.96,385.673,297.96,396.247,291.391,402.702z"/>
</g>
<g>
</g>
<g>
</g>
<g>
</g>
<g>
</g>
<g>
</g>
<g>
</g>
<g>
</g>
<g>
</g>
<g>
</g>
<g>
</g>
<g>
</g>
<g>
</g>
<g>
</g>
<g>
</g>
<g>
</g>
</svg>
