<?xml version="1.0" encoding="iso-8859-1"?>
<!-- Generator: Adobe Illustrator 19.0.0, SVG Export Plug-In . SVG Version: 6.00 Build 0)  -->
<svg version="1.1" id="Layer_1" xmlns="http://www.w3.org/2000/svg" xmlns:xlink="http://www.w3.org/1999/xlink" x="0px" y="0px"
	 viewBox="0 0 512 512" style="enable-background:new 0 0 512 512;" xml:space="preserve">
<path style="fill:#EBEBEC;" d="M336.845,326.916H303.45H256h-47.45h-33.395c-42.391,0-76.755,34.364-76.755,76.755V512H256h157.6
	V403.671C413.6,361.28,379.236,326.916,336.845,326.916z"/>
<polygon style="fill:#FFC496;" points="208.549,269.623 208.55,355.851 256,426.298 303.45,355.851 303.451,269.623 "/>
<polygon style="fill:#FD8B2D;" points="256,269.623 256,426.298 303.45,355.851 303.451,269.623 "/>
<path style="fill:#FFE0C8;" d="M157.472,192.46v-16.447c0-54.416,44.112-98.528,98.528-98.528l0,0
	c54.416,0,98.528,44.112,98.528,98.528v16.447v16.447c0,54.416-44.112,98.528-98.528,98.528l0,0
	c-54.416,0-98.528-44.112-98.528-98.528V192.46z"/>
<path style="fill:#FFC496;" d="M256,77.485L256,77.485c54.416,0,98.528,44.112,98.528,98.528v16.447v16.447
	c0,54.416-44.112,98.528-98.528,98.528l0,0C256,234.402,256,153.006,256,77.485z"/>
<g>
	<circle style="fill:#333333;" cx="223.09" cy="204.65" r="14.244"/>
	<circle style="fill:#333333;" cx="288.91" cy="204.65" r="14.244"/>
</g>
<path style="fill:#804D00;" d="M308.497,52.505C308.497,23.507,284.993,0,256,0s-52.497,23.507-52.497,52.505v28.801h104.995
	L308.497,52.505L308.497,52.505z"/>
<path style="fill:#4C3011;" d="M308.497,52.505C308.497,23.507,284.993,0,256,0c0,19.866,0,81.306,0,81.306h52.497V52.505z"/>
<path style="fill:#BA7400;" d="M256,135.398c-26.245,25.224-72.051,32.365-111.124,24.284
	c4.776-46.9,32.798-118.247,111.124-118.247s106.348,71.348,111.124,118.247C328.051,167.763,282.245,160.622,256,135.398z"/>
<path style="fill:#804D00;" d="M256,135.398c0-38.615,0-76.136,0-93.964c78.326,0,106.348,71.348,111.124,118.247
	C328.051,167.763,282.245,160.622,256,135.398z"/>
<polygon style="fill:#FD4C0D;" points="262.853,440.134 244.449,413.832 303.451,326.916 339.71,326.916 "/>
<polygon style="fill:#F78740;" points="297.933,512 172.29,326.916 208.55,326.916 334.192,512 "/>
<g>
</g>
<g>
</g>
<g>
</g>
<g>
</g>
<g>
</g>
<g>
</g>
<g>
</g>
<g>
</g>
<g>
</g>
<g>
</g>
<g>
</g>
<g>
</g>
<g>
</g>
<g>
</g>
<g>
</g>
</svg>
