<?xml version="1.0" encoding="iso-8859-1"?>
<!-- Generator: Adobe Illustrator 19.0.0, SVG Export Plug-In . SVG Version: 6.00 Build 0)  -->
<svg version="1.1" id="Layer_1" xmlns="http://www.w3.org/2000/svg" xmlns:xlink="http://www.w3.org/1999/xlink" x="0px" y="0px"
	 viewBox="0 0 503.5 503.5" style="enable-background:new 0 0 503.5 503.5;" xml:space="preserve">
<g transform="translate(10)">
	<g>
		<path style="fill:#50DD8E;" d="M275.9,379.45v-42.7c0,0-1.7-41,25.6-68.3s68.3-25.6,68.3-25.6h42.7v42.7c0,0,1.7,41-25.6,68.3
			c-27.3,27.3-68.3,25.6-68.3,25.6H275.9z"/>
		<path style="fill:#50DD8E;" d="M207.7,413.55H165c0,0-41,1.7-68.3-25.6s-25.6-68.3-25.6-68.3v-42.7h42.7c0,0,41-1.7,68.3,25.6
			s25.6,68.3,25.6,68.3L207.7,413.55L207.7,413.55z"/>
	</g>
	<path style="fill:#FF7474;" d="M369.8,21.05c0,0-29,0-58.9,9.4c-0.3,0.1-0.7,0.2-1,0.3v-0.2c0,0-17.1-25.6-42.7-25.6
		s-51.2,8.5-51.2,8.5s-16.9,6.8-24.6,20.3c-3.4-1.7-6.8-3.4-9.3-4.2c-25.6-8.5-68.3-8.5-68.3-8.5c17.1,8.5,25.6,25.6,25.6,51.2
		s-8.5,42.7-8.5,76.8c0,51.2,58.9,93.9,110.9,93.9s110.9-42.7,110.9-93.9c0-42.7-8.5-51.2-8.5-76.8S352.7,29.55,369.8,21.05z"/>
</g>
<path style="fill:#51565F;" d="M499.3,503.15H362.7c-2.6,0-4.3-1.7-4.3-4.3c0-2.6,1.7-4.3,4.3-4.3h136.5c2.6,0,4.3,1.7,4.3,4.3
	C503.5,501.45,501.8,503.15,499.3,503.15z M328.6,503.15h-17.1c-2.6,0-4.3-1.7-4.3-4.3c0-2.6,1.7-4.3,4.3-4.3h17.1
	c2.6,0,4.3,1.7,4.3,4.3C332.9,501.45,331.2,503.15,328.6,503.15z M277.4,503.15H157.9c-2.6,0-4.3-1.7-4.3-4.3c0-2.6,1.7-4.3,4.3-4.3
	h89.6v-247.4c-51.2-2.6-110.9-45.2-110.9-98.1c0-18.8,2.6-32.4,5.1-45.2c1.7-10.2,3.4-20.5,3.4-31.6c0-23.9-7.7-39.3-23-47.8
	c-1.7-0.9-2.6-2.6-2.6-5.1s2.6-3.4,4.3-3.4s43.5,0,70,8.5c27.3,9.4,105,67.4,105,166.4c0,2.6-1.7,4.3-4.3,4.3s-4.3-1.7-4.3-4.3
	c0-93.9-74.2-149.3-99.8-157.9c-15.4-5.1-38.4-6.8-52.9-7.7c10.2,10.2,16.2,25.6,16.2,46.9c0,11.9-1.7,22.2-4.3,33.3
	c-2.6,12.8-4.3,25.6-4.3,43.5c0,49.5,58,89.6,106.7,89.6s106.7-40.1,106.7-89.6c0-23.9-2.6-36.7-5.1-47.8c-1.7-8.5-3.4-17.1-3.4-29
	c0-20.5,5.1-35.8,15.4-46.1c-21.3,1.7-61.4,8.5-85.3,32.4c-1.7,1.7-4.3,1.7-6,0c-1.7-1.7-1.7-4.3,0-6c11.1-11.1,24.7-18.8,39.3-23.9
	c-5.1-6.8-18.8-20.5-36.7-20.5c-24.7,0-49.5,8.5-49.5,8.5c-2.6,0.9-4.3-0.9-5.1-2.6c-0.9-2.6,0.9-4.3,2.6-5.1
	c0.9,0,26.5-8.5,52.9-8.5c23.9,0,41,19.6,45.2,25.6c28.2-8.5,55.5-8.5,57.2-8.5s3.4,1.7,4.3,3.4c0.9,1.7-0.9,4.3-2.6,5.1
	c-15.4,7.7-23,23-23,47.8c0,11.1,1.7,18.8,3.4,27.3c2.6,11.9,5.1,24.7,5.1,49.5c0,52.9-59.7,95.6-110.9,98.1v247.5h21.3
	c2.6,0,4.3,1.7,4.3,4.3C281.7,503.15,280,503.15,277.4,503.15z M123.8,503.15H4.3c-2.6,0-4.3-1.7-4.3-4.3c0-2.6,1.7-4.3,4.3-4.3
	h119.5c2.6,0,4.3,1.7,4.3,4.3C128.1,501.45,126.4,503.15,123.8,503.15z M173.3,417.85c-8.5,0-44.4-1.7-69.1-27.3
	c-28.2-28.2-27.3-70-26.5-71.7v-42.7c0-2.6,1.7-4.3,4.3-4.3h42.7c1.7,0,42.7-1.7,70.8,26.5c28.2,28.2,27.3,70,27.3,71.7v41.8l0,0
	c0,0.9,0,2.6-0.9,3.4l-0.9,0.9c-0.9,0-0.9,0.9-1.7,0.9h-42.7C175,417.85,174.1,417.85,173.3,417.85z M85.4,281.25v38.4
	c0,0.9-0.9,39.3,24.7,64.9s64.9,24.7,64.9,24.7h32.4l-94.7-94.7c-0.9-0.9-0.9-1.7-0.9-3.4s0-2.6,0.9-3.4c1.7-1.7,4.3-1.7,6,0
	l94.7,94.7v-31.6c0-0.9,0.9-39.3-24.7-64.9s-64.9-24.7-64.9-24.7H85.4z M330.3,383.65c-0.9,0-1.7,0-1.7,0h-41.8
	c-0.9,0-2.6,0-3.4-0.9c-0.9-0.9-0.9-1.7-0.9-3.4l0,0v-42.7c0-1.7-1.7-42.7,26.5-71.7c28.2-28.2,70-27.3,71.7-26.5h42.7
	c2.6,0,4.3,1.7,4.3,4.3v42.7c0,1.7,1.7,42.7-26.5,71.7C374.7,381.95,338.8,383.65,330.3,383.65z M296.2,375.15h32.4c0,0-0.9,0,0.9,0
	c6.8,0,41-0.9,64-24.7c25.6-25.6,24.7-64.9,24.7-64.9v-38.4h-38.4c-0.9,0-39.3-0.9-64.9,24.7s-24.7,64.9-24.7,64.9v32.4l94.7-94.7
	c1.7-1.7,4.3-1.7,6,0c0.9,0.9,0.9,1.7,0.9,3.4s0,2.6-0.9,3.4L296.2,375.15z"/>
<g>
</g>
<g>
</g>
<g>
</g>
<g>
</g>
<g>
</g>
<g>
</g>
<g>
</g>
<g>
</g>
<g>
</g>
<g>
</g>
<g>
</g>
<g>
</g>
<g>
</g>
<g>
</g>
<g>
</g>
</svg>
