<?xml version="1.0" encoding="iso-8859-1"?>
<!-- Generator: Adobe Illustrator 19.0.0, SVG Export Plug-In . SVG Version: 6.00 Build 0)  -->
<svg version="1.1" id="Layer_1" xmlns="http://www.w3.org/2000/svg" xmlns:xlink="http://www.w3.org/1999/xlink" x="0px" y="0px"
	 viewBox="0 0 512 512" style="enable-background:new 0 0 512 512;" xml:space="preserve">
<path style="fill:#A9F0F0;" d="M405.7,206.264c-24.221,0-43.926-19.705-43.926-43.926c0-25.292,27.991-53.128,33.602-58.452
	l10.324-9.794l10.324,9.794c5.611,5.323,33.602,33.16,33.602,58.452C449.626,186.559,429.92,206.264,405.7,206.264z"/>
<path style="fill:#64DDE0;" d="M405.7,206.264c0-22.448,0-112.172,0-112.172l10.324,9.794c5.611,5.323,33.602,33.16,33.602,58.452
	C449.626,186.559,429.92,206.264,405.7,206.264z"/>
<rect x="166.08" y="16.696" style="fill:#EBEBEC;" width="85.12" height="93.84"/>
<rect x="208.64" y="16.696" style="fill:#CACACD;" width="42.559" height="93.84"/>
<rect x="141.45" y="94.51" style="fill:#64DDE0;" width="134.38" height="89.3"/>
<g>
	<rect x="208.64" y="94.51" style="fill:#00C2C7;" width="67.19" height="89.3"/>
	<path style="fill:#00C2C7;" d="M62.374,262.95V512h292.525V262.95c0-50.047-40.571-90.619-90.619-90.619H152.993
		C102.946,172.331,62.374,212.902,62.374,262.95z"/>
</g>
<path style="fill:#00A5AD;" d="M208.637,512h146.262V262.95c0-50.047-40.571-90.619-90.619-90.619h-55.644
	C208.637,233.739,208.637,512,208.637,512z"/>
<polygon style="fill:#CACACD;" points="396.686,76.304 335.094,30 104.208,30 104.208,0 345.112,0 414.713,52.325 "/>
<polygon style="fill:#A9A8AE;" points="396.686,76.304 335.094,30 208.637,30 208.637,0 345.112,0 414.713,52.325 "/>
<g>
</g>
<g>
</g>
<g>
</g>
<g>
</g>
<g>
</g>
<g>
</g>
<g>
</g>
<g>
</g>
<g>
</g>
<g>
</g>
<g>
</g>
<g>
</g>
<g>
</g>
<g>
</g>
<g>
</g>
</svg>
